<?xml version="1.0" encoding="UTF-8"?>
<svg id="Capa_1" data-name="Capa 1" xmlns="http://www.w3.org/2000/svg" viewBox="0 0 1522.41 391.28">
  <defs>
    <style>
      .cls-1, .cls-2, .cls-3, .cls-4 {
        fill: #fff;
      }

      .cls-5 {
        letter-spacing: -.02em;
      }

      .cls-6 {
        letter-spacing: 0em;
      }

      .cls-2 {
        letter-spacing: 0em;
      }

      .cls-7 {
        font-family: Outfit-ExtraBold, 'Outfit ExtraBold';
        font-size: 158.17px;
        font-weight: 700;
      }

      .cls-3 {
        letter-spacing: 0em;
      }

      .cls-4 {
        letter-spacing: 0em;
      }
    </style>
  </defs>
  <g>
    <polygon class="cls-1" points="253.28 81.95 172.3 0 91.32 81.95 172.3 163.91 161.96 174.37 126.64 138.62 91.32 174.37 172.3 256.32 253.28 174.37 172.3 92.41 182.54 82.18 217.96 117.7 253.28 81.95"/>
    <polygon points="80.98 184.83 172.3 277.24 263.62 184.83 298.94 220.57 172.3 348.73 45.66 220.57 80.98 184.83"/>
    <polygon class="cls-1" points="80.98 92.41 45.66 128.16 80.98 163.91 116.3 128.16 80.98 92.41"/>
    <polygon points="0 174.37 35.32 210.11 70.64 174.37 35.32 138.62 0 174.37"/>
    <polygon class="cls-1" points="228.29 128.16 263.62 92.41 298.94 128.16 263.62 163.91 228.29 128.16"/>
    <polygon points="273.95 174.37 309.28 138.62 344.6 174.37 309.28 210.11 273.95 174.37"/>
    <g>
      <polygon class="cls-1" points="164.99 360.99 0 194.02 0 224.31 164.99 391.28 164.99 360.99"/>
      <polygon class="cls-1" points="179.61 360.99 179.61 391.28 344.6 224.31 344.6 194.02 179.61 360.99"/>
    </g>
  </g>
  <text class="cls-7" transform="translate(427.26 234.19)"><tspan class="cls-4" x="0" y="0">C</tspan><tspan class="cls-3" x="92.21" y="0">Y</tspan><tspan class="cls-1" x="176.67" y="0">BE</tspan><tspan class="cls-2" x="340.22" y="0">R</tspan><tspan class="cls-5" x="425.78" y="0">C</tspan><tspan x="514.2" y="0">OMP</tspan><tspan class="cls-6" x="834.49" y="0">R</tspan><tspan x="920.38" y="0">AS</tspan></text>
</svg>