<?xml version="1.0" encoding="UTF-8"?>
<svg id="_2" data-name="2" xmlns="http://www.w3.org/2000/svg" viewBox="0 0 755.08 800">
  <defs>
    <style>
      .cls-1 {
        fill: #fff;
      }
    </style>
  </defs>
  <path class="cls-1" d="m745.69,149.58c-7.89-9.66-19.72-15.28-32.22-15.28H170.75l-18.48-63.46v-.04c-8.5-28.4-31.8-49.9-60.77-56.11L25.18.46C13.93-1.94,2.87,5.21.46,16.45c-2.4,11.22,4.75,22.3,15.99,24.7l66.33,14.22c14.14,3.02,25.48,13.52,29.62,27.35l121.23,416.48c-2.73,1.27-5.36,2.67-7.91,4.18-13.08,7.79-23.56,18.72-30.59,31.48-6.71,12.14-10.29,25.88-10.63,40.06h-.07v2.16h.05c.28,11.06,2.62,21.7,6.74,31.4,6.55,15.49,17.46,28.61,31.2,37.91,13.74,9.29,30.43,14.74,48.22,14.73h389.95c11.5,0,20.81-9.31,20.81-20.8s-9.31-20.81-20.81-20.81h-389.95c-6.22,0-12.03-1.23-17.35-3.49-7.97-3.37-14.83-9.05-19.65-16.18-4.62-6.85-7.32-14.94-7.56-23.8.24-10.57,3.61-19.74,9.52-27.07,3.08-3.79,6.85-7.11,11.43-9.86,4.54-2.71,9.87-4.84,16.13-6.2l391.97-63.81c25.63-4.18,45.98-23.75,51.15-49.18l47.94-235.7v-.03c.56-2.73.85-5.52.84-8.28.01-9.51-3.27-18.84-9.39-26.34Z"/>
  <path class="cls-1" d="m318.8,694.98c-9.13-6.19-20.27-9.82-32.1-9.82-7.88,0-15.48,1.61-22.37,4.52-10.32,4.36-19.05,11.63-25.23,20.79-6.2,9.13-9.83,20.27-9.82,32.1,0,7.88,1.61,15.48,4.51,22.37,4.38,10.32,11.63,19.06,20.79,25.24,9.14,6.18,20.28,9.83,32.12,9.82,7.88.01,15.47-1.61,22.35-4.52,10.33-4.38,19.06-11.62,25.24-20.77,6.18-9.15,9.82-20.3,9.82-32.13,0-7.88-1.62-15.47-4.51-22.34-4.38-10.33-11.63-19.06-20.8-25.26Zm-10.77,56.62c-1.75,4.13-4.7,7.69-8.41,10.19-3.72,2.51-8.07,3.94-12.92,3.95-3.24,0-6.23-.65-8.99-1.82-4.14-1.74-7.72-4.71-10.22-8.41-2.49-3.72-3.92-8.08-3.94-12.93.01-3.24.65-6.23,1.82-8.99,1.74-4.14,4.7-7.71,8.41-10.2,3.72-2.51,8.07-3.94,12.92-3.95,3.24.01,6.23.65,8.99,1.82,4.14,1.75,7.71,4.7,10.22,8.41,2.49,3.72,3.92,8.07,3.92,12.92,0,3.25-.64,6.25-1.8,9.02Z"/>
  <path class="cls-1" d="m633.69,694.98c-9.14-6.19-20.27-9.82-32.1-9.82-7.88,0-15.5,1.61-22.37,4.52-10.32,4.36-19.05,11.63-25.24,20.79-6.2,9.13-9.83,20.27-9.82,32.1,0,7.88,1.61,15.48,4.52,22.37,4.38,10.32,11.62,19.06,20.77,25.24,9.15,6.18,20.3,9.83,32.13,9.82,7.88.01,15.47-1.61,22.34-4.52,10.33-4.38,19.08-11.62,25.26-20.77,6.18-9.15,9.82-20.3,9.82-32.13,0-7.88-1.62-15.47-4.52-22.34-4.38-10.33-11.63-19.06-20.79-25.26Zm-10.77,56.62c-1.75,4.13-4.71,7.69-8.41,10.19-3.71,2.51-8.07,3.94-12.92,3.95-3.25,0-6.26-.65-9.02-1.82-4.11-1.74-7.69-4.71-10.19-8.41-2.49-3.72-3.94-8.08-3.95-12.93,0-3.24.66-6.23,1.82-8.99,1.74-4.14,4.71-7.71,8.4-10.2,3.72-2.51,8.09-3.94,12.95-3.95,3.24.01,6.23.65,8.99,1.82,4.14,1.75,7.69,4.7,10.2,8.41,2.49,3.72,3.94,8.07,3.94,12.92,0,3.25-.64,6.25-1.8,9.02Z"/>
</svg>